<?xml version="1.0" standalone="no"?>
<!DOCTYPE svg PUBLIC "-//W3C//DTD SVG 20010904//EN"
 "http://www.w3.org/TR/2001/REC-SVG-20010904/DTD/svg10.dtd">
<svg version="1.0" xmlns="http://www.w3.org/2000/svg"
 width="600.000000pt" height="338.000000pt" viewBox="0 0 600.000000 338.000000"
 preserveAspectRatio="xMidYMid meet">
<g transform="translate(0.000000,338.000000) scale(0.100000,-0.100000)"
fill="#000000" stroke="none">
<path d="M1020 2777 c-200 -90 -194 -86 -178 -105 16 -19 99 -153 168 -272 63
-108 64 -110 79 -101 10 7 9 54 -5 250 -11 151 -22 241 -29 240 -5 0 -21 -5
-35 -12z m25 -73 c6 -65 15 -195 19 -266 2 -37 8 -73 12 -80 6 -10 4 -10 -9 1
-9 7 -17 18 -17 24 0 6 -8 19 -17 30 -10 11 -12 17 -6 13 9 -5 11 -2 7 8 -3 9
-10 16 -16 16 -5 0 -6 10 -3 23 4 16 4 18 -3 8 -8 -11 -14 -8 -28 15 -10 16
-24 33 -31 37 -8 5 -10 13 -7 19 4 6 3 13 -2 17 -19 13 -49 54 -34 46 8 -5 6
3 -6 16 -33 38 -35 55 -8 67 13 7 32 9 41 5 10 -3 14 -2 10 2 -10 12 75 56 86
45 5 -4 10 -25 12 -46z"/>
<path d="M913 2686 c0 -7 7 -13 16 -12 10 1 15 -6 14 -18 -1 -12 2 -15 9 -8
12 12 4 28 -21 41 -13 7 -18 6 -18 -3z"/>
<path d="M906 2648 c3 -5 10 -6 15 -3 13 9 11 12 -6 12 -8 0 -12 -4 -9 -9z"/>
<path d="M1273 2658 l-83 -20 0 -139 c0 -85 4 -139 10 -139 9 0 164 311 158
315 -2 1 -40 -7 -85 -17z m32 -38 c-9 -16 -12 -30 -8 -30 5 0 1 -6 -7 -13 -13
-10 -42 -63 -42 -77 0 -12 -20 -41 -25 -36 -3 3 0 13 8 23 12 14 12 16 -1 11
-12 -4 -15 4 -15 46 0 59 17 86 57 86 15 0 30 5 33 10 14 23 14 8 0 -20z"/>
<path d="M1268 2583 c7 -3 16 -2 19 1 4 3 -2 6 -13 5 -11 0 -14 -3 -6 -6z"/>
<path d="M3318 2560 c-126 -90 -247 -291 -283 -470 l-7 -35 33 45 c46 64 154
168 230 222 117 84 333 181 452 203 21 4 35 11 30 16 -20 19 -185 52 -288 56
l-110 5 -57 -42z m278 -1 c6 -5 18 -7 25 -4 8 3 27 1 44 -3 29 -8 27 -9 -39
-35 -38 -14 -73 -24 -79 -20 -6 3 -7 1 -4 -4 4 -6 0 -14 -9 -17 -8 -3 -12 -2
-9 4 6 9 -55 -19 -65 -31 -3 -3 -20 -12 -37 -20 -18 -8 -33 -18 -33 -23 0 -4
-7 -5 -16 -2 -8 3 -13 2 -10 -3 3 -5 -8 -14 -24 -20 -17 -5 -30 -15 -30 -20 0
-6 -7 -7 -17 -4 -11 4 -14 3 -9 -5 6 -11 -5 -17 -26 -13 -5 0 -8 -3 -8 -8 0
-5 -7 -12 -16 -15 -12 -5 -14 -3 -8 7 9 12 -5 -2 -45 -50 -10 -12 -16 -25 -12
-29 3 -4 0 -4 -7 0 -9 5 -15 1 -19 -12 -2 -11 -15 -25 -29 -32 -13 -7 -21 -18
-17 -24 3 -6 0 -5 -8 2 -12 11 -11 15 4 23 11 7 16 17 12 29 -4 12 4 29 25 50
16 17 30 41 30 54 0 13 9 31 19 40 11 10 25 31 31 47 7 16 17 29 22 29 6 0 4
-8 -3 -17 -11 -16 -11 -16 1 -5 8 7 15 20 15 30 0 10 7 16 17 16 10 -1 15 3
12 8 -8 13 35 43 61 43 15 0 19 6 18 23 -2 13 0 21 5 19 4 -3 16 -1 27 3 25
10 196 1 211 -11z m-246 -19 c0 -5 -4 -10 -10 -10 -5 0 -10 5 -10 10 0 6 5 10
10 10 6 0 10 -4 10 -10z m-209 -237 c-12 -20 -14 -14 -5 12 4 9 9 14 11 11 3
-2 0 -13 -6 -23z"/>
<path d="M2785 2552 c-33 -22 -77 -53 -98 -70 l-38 -30 63 -34 c38 -20 93 -63
138 -109 67 -67 75 -73 74 -50 0 16 -7 27 -17 29 -15 3 -22 19 -19 43 1 4 -6
6 -16 5 -9 0 -16 4 -15 11 2 8 -4 10 -14 6 -12 -5 -15 -2 -10 10 4 11 2 14 -7
11 -19 -7 -30 14 -17 30 8 9 7 13 -4 13 -8 0 -12 -4 -9 -9 9 -14 -10 -8 -36
12 -14 11 -30 20 -37 20 -22 0 -25 21 -7 36 11 8 32 20 47 26 15 6 26 13 22
16 -11 11 46 39 70 34 14 -2 23 -8 20 -12 -2 -4 4 -15 15 -25 11 -10 16 -24
13 -33 -4 -9 -2 -13 4 -9 5 4 15 -6 22 -21 11 -25 10 -26 -4 -8 -8 11 -15 15
-15 8 0 -6 9 -17 20 -25 10 -7 24 -35 31 -63 15 -62 21 -212 9 -233 -8 -14 -9
-14 -10 2 0 9 -5 17 -11 17 -5 0 -8 4 -4 9 3 6 -4 8 -15 6 -12 -2 -24 3 -30
15 -6 11 -14 19 -18 18 -4 -1 -27 8 -52 19 -25 12 -53 24 -63 27 -10 3 -16 9
-14 13 3 5 -5 8 -16 9 -19 1 -44 5 -107 19 -8 2 -25 4 -37 4 -27 1 -30 19 -5
28 9 4 21 12 25 20 4 7 13 13 18 13 6 0 8 -3 6 -7 -3 -5 7 -9 21 -9 48 -3 72
-8 72 -16 0 -4 7 -8 16 -8 10 0 14 -5 10 -15 -4 -13 -2 -13 14 -5 15 8 24 5
46 -17 14 -16 23 -22 19 -14 -6 10 -4 12 4 7 9 -6 9 -11 -1 -23 -11 -14 -10
-15 9 -9 15 5 25 1 36 -14 7 -11 17 -17 20 -13 4 3 7 2 7 -4 0 -16 28 -24 36
-11 4 6 3 8 -3 5 -5 -3 -26 13 -45 37 -40 47 -139 104 -228 131 l-55 16 -53
-58 -54 -58 84 -7 c138 -10 262 -63 350 -148 l47 -46 8 46 c15 87 9 201 -16
277 -25 77 -97 196 -122 201 -8 1 -42 -15 -74 -36z"/>
<path d="M2725 2570 c-3 -6 1 -7 9 -4 18 7 21 14 7 14 -6 0 -13 -4 -16 -10z"/>
<path d="M3210 2576 c0 -2 8 -10 18 -17 15 -13 16 -12 3 4 -13 16 -21 21 -21
13z"/>
<path d="M2805 2529 c-4 -6 -5 -12 -2 -15 2 -3 7 2 10 11 7 17 1 20 -8 4z"/>
<path d="M2824 2513 c3 -3 17 -7 32 -9 14 -1 23 0 20 3 -3 4 -18 8 -32 9 -14
2 -24 0 -20 -3z"/>
<path d="M726 2488 c3 -5 10 -6 15 -3 13 9 11 12 -6 12 -8 0 -12 -4 -9 -9z"/>
<path d="M3135 2459 c-4 -6 -5 -12 -2 -15 2 -3 7 2 10 11 7 17 1 20 -8 4z"/>
<path d="M3625 2416 c-196 -71 -361 -173 -500 -308 l-90 -87 100 40 c255 102
515 168 775 197 l65 7 -38 23 c-21 12 -50 22 -65 22 -51 0 -204 -31 -323 -65
-104 -30 -169 -56 -396 -161 -29 -13 -53 -22 -53 -20 0 2 35 25 78 50 189 111
412 196 605 232 53 10 94 21 90 25 -10 9 -146 79 -153 79 -3 -1 -45 -16 -95
-34z m120 -6 c4 -6 10 -8 15 -5 5 3 16 -3 26 -12 17 -17 16 -18 -22 -25 -21
-5 -56 -10 -77 -13 -21 -3 -45 -9 -55 -14 -9 -5 -32 -7 -51 -6 -19 2 -28 0
-21 -5 9 -6 7 -10 -9 -15 -12 -4 -28 -2 -36 5 -10 8 -19 9 -32 1 -16 -10 -16
-11 4 -8 12 1 22 -2 22 -8 1 -5 -7 -10 -16 -10 -10 0 -21 -4 -24 -8 -3 -5 -12
-9 -20 -11 -8 -1 -28 -9 -46 -18 -23 -11 -33 -13 -37 -4 -2 6 -5 3 -5 -7 -1
-10 -5 -16 -10 -12 -5 3 -17 -2 -25 -11 -9 -8 -16 -11 -16 -7 0 10 51 50 61
49 4 -1 15 6 25 16 26 22 157 85 170 81 6 -2 16 3 23 11 7 8 21 12 34 8 13 -3
18 -1 14 4 -5 5 10 14 35 20 56 16 66 16 73 4z m18 -147 c-7 -2 -19 -2 -25 0
-7 3 -2 5 12 5 14 0 19 -2 13 -5z m-467 -50 c-2 -9 -9 -19 -17 -21 -11 -3 -11
-1 1 7 8 6 11 11 7 11 -5 0 -5 5 -2 10 9 15 14 12 11 -7z"/>
<path d="M3760 2390 c0 -5 5 -10 11 -10 5 0 7 5 4 10 -3 6 -8 10 -11 10 -2 0
-4 -4 -4 -10z"/>
<path d="M742 2373 l-40 -68 61 -18 c34 -10 98 -29 142 -42 43 -13 82 -22 84
-19 3 3 -42 52 -100 110 l-106 106 -41 -69z m58 11 c0 -8 4 -13 9 -10 4 3 17
-4 27 -15 16 -17 16 -22 4 -31 -12 -8 -11 -9 3 -4 13 4 28 -3 47 -24 26 -28
26 -30 7 -26 -41 8 -82 19 -92 25 -5 3 -13 6 -17 7 -5 1 -10 3 -13 4 -5 2 -16
5 -31 9 -3 0 4 15 16 31 12 17 19 30 15 30 -3 0 -3 5 0 10 9 15 25 12 25 -6z"/>
<path d="M790 2330 c-9 -6 -10 -10 -3 -10 6 0 15 5 18 10 8 12 4 12 -15 0z"/>
<path d="M1996 2402 c-3 -5 8 -6 25 -4 16 2 29 6 29 8 0 8 -49 4 -54 -4z"/>
<path d="M1527 2374 c-335 -74 -596 -289 -712 -583 -80 -206 -74 -442 16 -627
59 -119 177 -237 300 -300 69 -34 183 -64 275 -71 94 -7 212 15 284 53 l45 24
-40 -7 c-69 -13 -226 -7 -295 11 -120 32 -208 82 -290 165 -123 124 -180 264
-180 440 1 355 272 663 675 767 99 25 311 25 420 0 85 -20 209 -65 263 -97 86
-50 40 12 -63 86 -76 54 -161 97 -250 125 -93 29 -344 38 -448 14z m348 -17
c58 -11 148 -37 160 -47 6 -5 15 -7 18 -3 4 3 7 2 7 -4 0 -6 13 -13 30 -16 16
-4 37 -14 47 -24 10 -10 29 -24 43 -31 33 -17 3 -9 -75 18 -55 20 -95 28 -166
33 -16 1 -29 4 -29 7 0 3 -41 3 -90 1 -61 -2 -95 1 -105 9 -12 10 -15 9 -15
-3 0 -9 -8 -16 -17 -15 -21 0 -87 -15 -163 -37 -30 -9 -61 -17 -67 -18 -7 0
-13 -3 -13 -6 0 -4 -25 -17 -55 -30 -30 -13 -55 -27 -55 -30 0 -4 -8 -7 -19
-8 -10 -1 -32 -13 -47 -28 -55 -50 -67 -60 -60 -47 4 6 5 12 2 12 -3 0 -13
-12 -21 -27 -9 -16 -14 -19 -10 -9 5 16 3 17 -9 6 -9 -6 -14 -15 -13 -19 1 -4
-10 -18 -24 -32 -14 -13 -38 -42 -55 -64 -16 -22 -35 -44 -41 -48 -7 -4 -13
-13 -13 -18 0 -6 -9 -23 -19 -37 -10 -15 -20 -31 -21 -37 -1 -5 -6 -9 -12 -7
-5 1 -7 -2 -3 -8 4 -6 -2 -30 -13 -53 -48 -104 -68 -312 -38 -404 4 -12 2 -24
-4 -28 -5 -3 -10 -12 -10 -18 0 -7 4 -6 10 3 8 13 10 13 10 -2 0 -9 9 -33 20
-55 11 -21 29 -60 40 -86 11 -27 24 -45 30 -42 6 4 9 1 8 -7 -2 -7 4 -12 12
-10 8 2 12 0 8 -4 -4 -4 -2 -14 5 -22 10 -13 9 -14 -3 -7 -8 5 5 -10 29 -33
24 -23 51 -41 59 -40 8 2 16 -5 17 -14 2 -10 -1 -18 -7 -18 -6 0 -7 7 -4 16 3
8 2 12 -3 9 -6 -3 -9 -14 -8 -24 1 -15 5 -17 19 -10 12 7 23 5 36 -7 34 -29
196 -96 241 -99 23 -2 46 -7 50 -11 3 -4 -34 -3 -84 0 -109 9 -108 9 -116 20
-4 5 -17 10 -30 12 -55 8 -119 35 -139 58 -7 9 -19 16 -27 16 -13 0 -13 2 -2
17 13 15 12 15 -11 3 -23 -12 -24 -12 -11 4 12 14 12 16 -1 11 -9 -4 -23 1
-32 10 -9 9 -16 14 -16 10 0 -3 -14 8 -30 25 -17 17 -28 35 -25 40 3 5 0 12
-6 16 -8 5 -9 3 -4 -6 5 -9 4 -11 -3 -6 -7 4 -12 16 -12 26 0 10 -14 29 -31
41 -23 16 -30 28 -26 44 2 15 0 22 -8 19 -15 -6 -28 23 -15 31 6 4 10 14 9 23
0 14 -2 14 -8 -2 -7 -18 -8 -18 -14 -3 -3 9 -3 24 0 34 4 10 2 14 -5 9 -12 -7
-25 43 -26 101 -1 17 -4 29 -7 28 -3 -2 -4 42 -3 98 2 98 24 218 46 244 6 7 8
19 5 28 -4 8 -2 17 4 20 5 4 6 12 2 18 -4 7 0 6 10 -2 15 -12 17 -10 12 20 -4
27 -3 30 4 14 8 -17 10 -18 10 -2 1 9 6 17 12 17 5 0 8 4 5 8 -7 12 33 74 43
67 5 -3 13 0 17 6 4 8 3 9 -4 5 -7 -4 -12 -4 -12 0 0 10 63 79 72 79 10 0 11
11 4 28 -5 12 -24 -6 -54 -49 -7 -11 -6 -5 2 11 8 17 29 44 47 60 18 17 29 23
24 15 -5 -8 4 -3 20 13 15 15 34 27 42 27 8 0 11 5 8 10 -3 6 2 10 11 10 10 0
14 3 11 7 -8 7 53 48 66 45 5 -1 6 2 3 7 -8 13 92 61 111 54 10 -4 14 -2 9 5
-8 13 28 26 64 24 21 -1 22 0 6 6 -14 6 2 14 65 31 46 13 100 23 119 23 20 0
42 4 50 9 15 10 194 7 255 -4z m-945 -397 c-6 -11 -13 -20 -16 -20 -2 0 0 9 6
20 6 11 13 20 16 20 2 0 0 -9 -6 -20z m-47 -75 c-3 -9 -8 -14 -10 -11 -3 3 -2
9 2 15 9 16 15 13 8 -4z m121 -751 c3 -8 2 -12 -4 -9 -6 3 -10 10 -10 16 0 14
7 11 14 -7z"/>
<path d="M1688 2323 c7 -3 16 -2 19 1 4 3 -2 6 -13 5 -11 0 -14 -3 -6 -6z"/>
<path d="M2005 2290 c-3 -6 1 -7 9 -4 18 7 21 14 7 14 -6 0 -13 -4 -16 -10z"/>
<path d="M1342 2281 c-11 -7 -11 -9 0 -14 9 -3 15 1 15 9 0 8 -1 14 -1 14 -1
0 -7 -4 -14 -9z"/>
<path d="M967 1843 c3 -7 6 -13 8 -13 2 0 5 6 8 13 3 8 -1 14 -8 14 -7 0 -11
-6 -8 -14z"/>
<path d="M852 1768 c7 -15 15 -23 17 -17 2 6 -4 18 -13 27 -15 15 -15 15 -4
-10z"/>
<path d="M974 1089 c-3 -6 -2 -15 3 -20 5 -5 9 -1 9 11 0 23 -2 24 -12 9z"/>
<path d="M1050 1023 c1 -14 28 -44 32 -36 3 4 -3 16 -14 26 -10 9 -18 14 -18
10z"/>
<path d="M1110 916 c0 -2 7 -7 16 -10 8 -3 12 -2 9 4 -6 10 -25 14 -25 6z"/>
<path d="M1300 850 c0 -6 7 -10 15 -10 8 0 15 2 15 4 0 2 -7 6 -15 10 -8 3
-15 1 -15 -4z"/>
<path d="M3985 2290 c-3 -5 -1 -10 4 -10 6 0 11 5 11 10 0 6 -2 10 -4 10 -3 0
-8 -4 -11 -10z"/>
<path d="M2485 2251 c-3 -5 -2 -12 3 -15 5 -3 9 1 9 9 0 17 -3 19 -12 6z"/>
<path d="M1655 2226 c-258 -50 -490 -206 -600 -402 -39 -70 -45 -89 -15 -51
11 14 20 29 20 33 0 4 11 22 25 40 14 19 27 37 28 41 5 19 132 135 188 173 77
53 204 112 289 134 39 11 122 20 205 23 135 5 145 4 263 -27 67 -18 122 -36
122 -41 0 -5 6 -9 13 -9 8 0 42 -14 77 -31 59 -29 90 -32 90 -10 0 6 -7 8 -16
4 -8 -3 -59 15 -112 40 -137 64 -241 89 -387 93 -73 2 -147 -2 -190 -10z"/>
<path d="M2939 2223 c-13 -16 -12 -17 4 -4 16 13 21 21 13 21 -2 0 -10 -8 -17
-17z"/>
<path d="M3770 2210 c-140 -24 -220 -43 -375 -90 -154 -47 -340 -119 -307
-119 13 -1 35 5 50 13 23 11 257 94 287 101 6 1 17 5 25 8 8 3 29 8 45 11 17
3 75 17 130 31 55 14 153 31 217 38 65 8 121 16 125 20 12 12 -90 6 -197 -13z"/>
<path d="M2503 2180 c-24 -29 -30 -45 -13 -35 28 17 290 -34 403 -79 l62 -25
-34 29 c-79 67 -214 119 -346 134 -46 4 -52 3 -72 -24z m142 -15 c23 -12 24
-13 5 -8 -14 4 -38 7 -53 7 -19 -1 -24 2 -15 7 18 12 28 11 63 -6z"/>
<path d="M833 2151 l-92 -16 19 -43 c14 -31 23 -41 33 -35 45 28 137 98 137
105 0 4 -1 7 -2 7 -2 -1 -44 -9 -95 -18z m-6 -36 c0 -8 -4 -12 -8 -9 -4 2 -9
-2 -12 -8 -4 -10 -7 -11 -18 0 -11 10 -10 12 4 12 9 0 17 5 17 10 0 6 4 10 8
10 5 0 9 -7 9 -15z"/>
<path d="M2480 2110 c0 -5 19 -10 43 -10 24 0 92 -9 152 -20 117 -21 154 -25
118 -10 -65 26 -313 58 -313 40z"/>
<path d="M4243 2085 c0 -8 4 -12 9 -9 5 3 6 10 3 15 -9 13 -12 11 -12 -6z"/>
<path d="M5090 2068 c-19 -5 -38 -13 -43 -17 -4 -4 -21 -83 -37 -177 -16 -93
-47 -270 -70 -394 -22 -123 -40 -239 -40 -256 0 -43 41 -90 89 -105 21 -6 74
-10 117 -7 99 5 173 37 248 108 68 65 110 143 131 248 37 181 -29 312 -157
312 -58 0 -128 -31 -163 -72 -14 -16 -25 -25 -25 -20 0 5 18 91 40 191 22 100
38 186 35 191 -8 13 -79 11 -125 -2z m95 -38 c-3 -14 -6 -35 -6 -47 1 -13 -3
-23 -8 -23 -6 0 -10 -8 -10 -17 1 -36 -12 -98 -20 -101 -4 -1 -6 -14 -3 -29 3
-15 1 -23 -4 -20 -6 3 -10 -3 -10 -13 0 -10 3 -17 7 -14 4 2 2 -12 -3 -31 -9
-26 -8 -38 2 -50 12 -14 15 -14 30 0 9 8 20 12 23 9 4 -4 9 0 13 9 3 9 12 13
21 10 12 -5 14 -3 8 7 -6 10 -2 12 17 8 18 -3 25 0 24 10 -1 11 12 15 47 17
26 1 47 -1 47 -6 0 -5 8 -5 18 -2 15 6 16 5 2 -12 -14 -17 -14 -18 9 -5 21 11
23 10 18 -3 -4 -12 -2 -14 10 -10 11 4 14 2 9 -5 -4 -7 -3 -12 2 -12 15 0 33
-51 27 -74 -5 -17 -4 -18 5 -6 8 11 10 1 9 -45 -1 -89 -10 -155 -20 -149 -5 3
-6 -1 -3 -9 7 -18 -30 -89 -41 -79 -5 4 -5 1 -1 -6 9 -16 -14 -40 -34 -35 -13
4 -13 3 -1 -5 12 -9 13 -13 1 -27 -19 -23 -116 -102 -107 -88 6 9 3 11 -7 7
-9 -3 -13 -10 -10 -15 3 -5 -2 -6 -10 -3 -9 3 -13 11 -9 17 3 6 1 7 -5 3 -6
-4 -8 -14 -5 -24 3 -9 3 -14 -2 -10 -4 4 -14 3 -22 -3 -7 -7 -48 -13 -91 -16
-133 -6 -184 33 -170 132 4 28 9 74 13 104 3 29 12 81 21 115 8 33 16 75 18
91 10 86 37 229 46 240 6 7 8 19 5 27 -8 21 23 170 37 180 7 4 9 8 3 8 -5 1 1
6 14 11 13 5 33 7 44 3 12 -4 17 -2 13 4 -3 6 5 9 20 8 22 -1 25 -4 19 -26z"/>
<path d="M5012 1680 c0 -14 2 -19 5 -12 2 6 2 18 0 25 -3 6 -5 1 -5 -13z"/>
<path d="M5288 1673 c7 -3 16 -2 19 1 4 3 -2 6 -13 5 -11 0 -14 -3 -6 -6z"/>
<path d="M5145 1634 c8 -12 11 -24 7 -27 -4 -2 -1 -2 6 -1 20 5 13 -14 -8 -21
-11 -4 -18 -11 -15 -16 4 -5 1 -9 -4 -9 -6 0 -11 -7 -11 -16 0 -8 -4 -13 -9
-10 -8 5 -20 -20 -26 -54 -2 -8 -8 -28 -14 -44 -13 -31 -18 -63 -25 -143 -4
-42 -2 -53 10 -53 7 0 14 -4 14 -8 0 -13 71 -7 108 10 18 8 29 18 25 23 -5 4
0 5 9 2 17 -6 31 6 34 29 1 6 13 23 28 39 14 15 31 43 38 61 7 19 15 34 19 34
4 0 10 33 14 74 6 62 4 79 -11 105 -10 17 -23 31 -29 31 -5 0 -3 5 5 11 11 8
5 9 -25 5 -22 -3 -45 -6 -51 -6 -5 0 -20 -9 -33 -21 -18 -17 -25 -18 -37 -8
-8 7 -13 17 -10 24 2 6 -2 12 -10 12 -12 0 -12 -4 1 -23z m165 -23 c17 -33 12
-126 -12 -188 -36 -98 -148 -191 -210 -175 -26 6 -27 23 -12 105 17 88 44 157
81 205 50 66 131 94 153 53z"/>
<path d="M5212 1574 c-44 -35 -88 -125 -105 -217 -8 -43 -12 -77 -8 -77 4 0
11 31 17 69 19 115 81 215 143 227 36 7 42 24 9 24 -13 0 -38 -12 -56 -26z"/>
<path d="M5366 1337 c3 -10 9 -15 12 -12 3 3 0 11 -7 18 -10 9 -11 8 -5 -6z"/>
<path d="M5261 1294 c0 -11 3 -14 6 -6 3 7 2 16 -1 19 -3 4 -6 -2 -5 -13z"/>
<path d="M4942 1260 c0 -14 2 -19 5 -12 2 6 2 18 0 25 -3 6 -5 1 -5 -13z"/>
<path d="M5240 1246 c0 -2 8 -10 18 -17 15 -13 16 -12 3 4 -13 16 -21 21 -21
13z"/>
<path d="M4940 1220 c-9 -6 -10 -10 -3 -10 6 0 15 5 18 10 8 12 4 12 -15 0z"/>
<path d="M2821 2057 c2 -2 19 -11 36 -20 24 -11 35 -12 40 -4 3 7 3 9 -2 5 -4
-4 -17 -1 -29 7 -17 12 -59 23 -45 12z"/>
<path d="M4280 2051 c-34 -9 -40 -24 -91 -228 l-44 -180 -124 -11 c-68 -7
-126 -10 -128 -8 -5 4 75 385 83 398 8 13 -20 22 -61 19 -68 -3 -115 -20 -125
-44 -9 -20 -70 -358 -70 -385 0 -6 -13 -13 -30 -17 -48 -11 -80 -42 -80 -79 0
-39 15 -56 52 -56 15 0 28 -3 28 -7 0 -5 -14 -77 -30 -161 -22 -113 -28 -158
-20 -172 12 -22 67 -40 121 -40 l37 0 38 198 c20 108 38 198 39 200 2 3 238
32 241 29 1 -1 -14 -80 -33 -175 -19 -95 -32 -183 -29 -196 3 -12 17 -28 32
-35 35 -15 106 -24 120 -14 5 4 36 141 68 303 53 266 119 579 132 621 11 40
-54 60 -126 40z m91 -20 c5 -1 1 -31 -18 -141 -5 -30 -7 -32 -14 -15 -7 14 -7
11 -3 -11 3 -18 -1 -58 -9 -90 -8 -33 -20 -92 -27 -133 -9 -53 -15 -70 -22
-60 -8 11 -8 10 -4 -4 3 -10 -1 -50 -9 -89 -8 -39 -12 -75 -8 -81 3 -6 1 -7
-5 -3 -8 5 -11 0 -8 -16 2 -13 -3 -39 -10 -58 -7 -19 -16 -55 -19 -80 -19
-143 -17 -139 -67 -134 -46 4 -69 21 -69 50 0 42 21 129 32 133 7 2 8 6 1 10
-15 9 16 153 36 170 16 13 16 13 0 8 -10 -4 -18 -2 -18 3 0 6 6 10 13 10 6 0
4 5 -6 11 -9 6 -14 15 -11 21 4 6 3 8 -2 5 -6 -3 -41 -8 -79 -11 -39 -4 -85
-9 -102 -12 -22 -4 -33 -2 -33 5 0 12 -6 8 -44 -26 -8 -7 -16 -10 -18 -8 -2 3
-4 -10 -3 -28 0 -17 -5 -45 -11 -62 -7 -16 -14 -48 -16 -71 -3 -23 -8 -45 -11
-51 -3 -5 -9 -32 -12 -59 -9 -68 -15 -85 -27 -78 -7 4 -7 0 0 -13 9 -16 7 -19
-11 -21 -33 -3 -69 7 -62 18 3 6 -4 10 -16 10 -20 0 -21 3 -15 43 4 23 9 51
11 62 2 11 11 58 19 105 7 47 17 93 21 103 4 10 3 17 -5 17 -6 0 -8 5 -5 10 3
6 -2 11 -12 11 -10 1 -22 2 -28 4 -5 1 -16 3 -22 3 -7 1 -13 10 -13 20 0 23
45 66 59 57 6 -3 11 -1 11 6 0 7 3 10 6 7 10 -10 41 26 36 41 -3 8 -1 12 4 9
5 -4 9 8 9 25 1 38 11 104 31 207 8 41 17 87 19 103 6 39 9 43 50 45 19 2 47
7 61 12 17 7 23 7 19 0 -3 -6 -2 -10 3 -10 5 0 3 -25 -4 -57 -15 -62 -53 -240
-62 -287 -3 -20 -7 -24 -13 -15 -6 10 -9 10 -9 2 0 -7 12 -24 28 -38 22 -21
33 -25 62 -21 58 10 182 27 202 29 14 1 22 14 31 44 6 23 13 40 16 38 3 -1 7
17 8 42 3 51 10 64 23 43 6 -8 10 -10 10 -5 0 6 -4 15 -10 21 -11 11 37 205
54 216 6 4 17 6 24 3 6 -2 12 -1 12 3 0 6 28 7 61 3z"/>
<path d="M3810 1966 c0 -2 8 -10 18 -17 15 -13 16 -12 3 4 -13 16 -21 21 -21
13z"/>
<path d="M4340 1950 c0 -5 5 -10 10 -10 6 0 10 5 10 10 0 6 -4 10 -10 10 -5 0
-10 -4 -10 -10z"/>
<path d="M4131 1414 c0 -11 3 -14 6 -6 3 7 2 16 -1 19 -3 4 -6 -2 -5 -13z"/>
<path d="M5217 1919 c-15 -68 -27 -131 -26 -139 0 -8 14 43 30 115 16 71 28
134 26 139 -2 5 -15 -46 -30 -115z"/>
<path d="M2712 2001 c-127 -44 -204 -192 -157 -303 15 -36 77 -98 98 -98 7 0
-28 -20 -78 -44 -138 -68 -131 -57 -96 -151 l29 -80 48 -3 c132 -8 271 -68
395 -168 95 -76 137 -101 144 -82 3 7 27 135 55 283 28 149 61 321 72 383 l22
112 58 0 c52 0 59 -2 54 -17 -3 -10 -31 -157 -62 -327 l-58 -310 65 -58 c35
-32 71 -58 79 -58 12 0 28 69 78 343 35 188 66 362 69 386 l6 43 38 -5 c42 -6
39 -10 65 96 l6 27 -288 -2 -287 -3 -13 -55 c-7 -30 -13 -56 -14 -57 0 -2 7
-3 16 -3 13 0 15 -6 9 -27 -4 -16 -7 -28 -8 -29 -1 -1 -57 -27 -124 -58 -116
-54 -124 -57 -162 -46 -79 21 -91 102 -23 161 l37 32 6 -33 c8 -38 23 -50 62
-50 71 0 104 107 51 169 -24 29 -76 51 -119 51 -11 -1 -44 -9 -73 -19z m123
-21 c-3 -6 0 -7 8 -4 8 3 17 -2 20 -10 4 -9 14 -16 23 -16 10 0 14 -3 11 -6
-3 -4 -2 -15 4 -25 7 -13 5 -27 -5 -47 -23 -44 -41 -56 -64 -41 -11 7 -18 17
-16 23 2 6 -5 22 -16 36 -11 14 -20 20 -20 13 0 -7 -7 -10 -17 -6 -11 4 -14 3
-9 -5 4 -7 3 -12 -3 -12 -5 0 -12 6 -14 13 -3 7 -6 4 -6 -6 -1 -18 -30 -56
-32 -40 0 4 -7 -9 -15 -31 -7 -21 -11 -43 -7 -49 4 -7 8 -19 8 -28 2 -21 40
-70 49 -62 3 3 6 1 6 -6 0 -7 4 -9 10 -6 5 3 17 2 26 -3 23 -13 84 4 161 44
35 18 69 31 77 28 8 -3 17 -1 21 5 4 7 -1 9 -12 5 -10 -3 -3 3 15 15 18 12 36
21 40 21 4 0 8 24 9 53 1 28 5 66 8 82 6 29 8 30 58 27 29 -1 142 -3 252 -5
172 -2 200 -4 196 -17 -2 -8 -4 -22 -5 -30 -2 -8 -16 -16 -32 -18 -16 -2 -34
-8 -41 -14 -14 -11 -37 -111 -35 -148 2 -20 0 -22 -9 -10 -8 12 -9 8 -4 -14 4
-18 0 -37 -11 -53 -9 -14 -11 -22 -5 -19 6 4 11 3 11 -3 0 -5 -5 -13 -10 -16
-6 -3 -7 -18 -4 -32 5 -17 3 -24 -4 -19 -6 4 -8 -1 -5 -13 3 -11 0 -35 -6 -53
-6 -18 -11 -50 -13 -70 -1 -21 -6 -38 -11 -38 -5 0 -6 -7 -3 -16 8 -20 -12
-97 -27 -106 -9 -5 -9 -10 -1 -18 8 -8 7 -25 -2 -62 -8 -28 -15 -52 -16 -54
-2 -1 -21 13 -43 32 -22 18 -34 34 -27 34 6 0 12 -4 12 -10 0 -5 5 -10 12 -10
16 0 -2 18 -34 34 -12 7 -21 19 -19 27 2 8 5 28 6 44 2 17 9 50 15 75 7 25 13
55 14 68 0 12 4 22 7 22 3 0 6 21 8 48 1 26 8 74 16 107 12 55 18 84 29 155 2
14 7 43 11 65 9 50 -3 62 -69 71 -37 5 -50 3 -66 -11 -11 -10 -20 -24 -20 -32
0 -8 -4 -12 -8 -9 -4 2 -7 -7 -7 -22 1 -15 -2 -31 -6 -37 -4 -5 -10 -32 -13
-60 -3 -27 -8 -61 -10 -75 -3 -14 -5 -35 -5 -48 -1 -13 -5 -20 -11 -17 -7 4
-8 -3 -4 -21 5 -21 4 -25 -6 -19 -10 6 -11 0 -6 -30 4 -20 4 -35 -1 -32 -4 3
-9 -14 -11 -36 -1 -23 -9 -77 -17 -121 -8 -43 -15 -91 -15 -107 0 -17 -6 -32
-15 -35 -10 -4 -12 -15 -8 -34 4 -22 2 -28 -10 -26 -21 3 -55 34 -62 57 -4 11
-11 19 -16 19 -6 0 -7 -5 -3 -11 4 -8 0 -8 -15 0 -11 7 -21 16 -21 21 0 5 -26
23 -57 41 -32 18 -61 37 -65 43 -4 6 -10 7 -14 3 -4 -4 -14 -1 -23 7 -29 25
-170 63 -258 69 -7 0 -16 16 -19 35 -4 19 -13 46 -20 60 -14 27 -10 46 9 39 7
-2 19 4 27 13 23 25 95 51 108 38 6 -6 12 -6 17 3 5 8 4 10 -3 5 -7 -4 -12 -2
-12 3 0 6 10 11 23 12 21 0 21 1 2 9 -11 5 -14 9 -7 9 24 2 11 29 -35 70 -29
27 -48 53 -50 70 -5 50 -2 115 7 127 6 6 7 14 3 18 -4 4 0 4 10 0 13 -5 16 -2
11 10 -3 9 -1 16 6 16 6 0 8 5 5 10 -3 6 1 13 9 16 9 3 13 10 10 15 -3 5 0 9
7 9 7 0 20 6 28 14 9 7 30 18 46 23 40 13 127 15 120 3z m252 -72 c-3 -7 -5
-2 -5 12 0 14 2 19 5 13 2 -7 2 -19 0 -25z"/>
<path d="M2795 1971 c-3 -5 -2 -12 3 -15 5 -3 9 1 9 9 0 17 -3 19 -12 6z"/>
<path d="M2760 1930 c-9 -6 -10 -10 -3 -10 6 0 15 5 18 10 8 12 4 12 -15 0z"/>
<path d="M3090 1819 c0 -5 5 -7 10 -4 6 3 10 8 10 11 0 2 -4 4 -10 4 -5 0 -10
-5 -10 -11z"/>
<path d="M2988 1634 c-9 -9 -27 -17 -41 -17 -14 -1 -23 -5 -21 -9 3 -4 -4 -12
-15 -17 -24 -13 -34 -14 -26 -2 3 5 0 13 -7 17 -7 4 -10 4 -6 -1 9 -10 -9 -45
-23 -45 -6 0 -7 6 -4 13 4 6 -3 2 -14 -11 -11 -13 -21 -22 -23 -21 -9 6 -47
-14 -43 -22 3 -5 -1 -6 -9 -3 -9 3 -16 1 -16 -5 0 -6 -5 -11 -11 -11 -5 0 -7
5 -3 12 4 7 3 8 -5 4 -6 -4 -9 -12 -6 -17 4 -5 -1 -9 -9 -9 -9 0 -16 -5 -16
-11 0 -5 -6 -7 -12 -3 -10 5 -10 4 0 -7 10 -11 39 0 178 69 92 46 168 81 170
79 2 -2 -7 -59 -21 -128 -13 -68 -25 -136 -25 -151 0 -34 -5 -34 -44 -5 -59
44 -107 69 -188 98 -45 16 -84 27 -86 24 -8 -7 9 -25 24 -25 9 0 12 -5 8 -12
-4 -7 -3 -8 4 -4 6 4 28 -1 49 -10 21 -10 40 -18 43 -19 24 -8 68 -33 78 -45
12 -13 13 -13 7 0 -4 10 -2 9 8 -2 8 -10 17 -15 20 -11 4 3 7 -1 7 -10 0 -9 3
-16 8 -15 4 1 17 -2 30 -6 14 -4 28 -3 36 3 7 6 15 9 17 6 3 -2 4 8 4 23 -1
15 1 32 4 37 3 6 6 21 7 35 1 14 8 52 15 85 21 87 18 134 -6 151 -18 12 -23
12 -37 -2z"/>
<path d="M2800 1606 c0 -2 11 -6 25 -8 13 -3 22 -1 19 3 -5 9 -44 13 -44 5z"/>
<path d="M2700 1570 c-9 -6 -10 -10 -3 -10 6 0 15 5 18 10 8 12 4 12 -15 0z"/>
<path d="M2880 1520 c-52 -27 -99 -50 -105 -53 -5 -2 -7 -7 -4 -11 6 -6 80 21
89 33 3 3 33 19 68 35 34 16 62 33 62 38 0 12 -8 9 -110 -42z"/>
<path d="M2530 1476 c0 -2 7 -7 16 -10 8 -3 12 -2 9 4 -6 10 -25 14 -25 6z"/>
<path d="M2713 1395 c0 -7 6 -11 14 -8 7 3 13 6 13 8 0 2 -6 5 -13 8 -8 3 -14
-1 -14 -8z"/>
<path d="M3015 1320 c3 -5 8 -10 11 -10 2 0 4 5 4 10 0 6 -5 10 -11 10 -5 0
-7 -4 -4 -10z"/>
<path d="M2820 1306 c0 -2 8 -10 18 -17 15 -13 16 -12 3 4 -13 16 -21 21 -21
13z"/>
<path d="M2859 1273 c-13 -16 -12 -17 4 -4 16 13 21 21 13 21 -2 0 -10 -8 -17
-17z"/>
<path d="M3081 1194 c0 -11 3 -14 6 -6 3 7 2 16 -1 19 -3 4 -6 -2 -5 -13z"/>
<path d="M3342 1170 c0 -14 2 -19 5 -12 2 6 2 18 0 25 -3 6 -5 1 -5 -13z"/>
<path d="M3041 1148 c-1 -21 15 -32 25 -17 4 7 3 9 -4 5 -6 -3 -13 2 -15 11
-4 16 -5 16 -6 1z"/>
<path d="M3996 1992 c-3 -5 -8 -29 -11 -53 l-5 -44 15 50 c13 46 14 68 1 47z"/>
<path d="M1323 1936 c-227 -178 -317 -481 -208 -697 55 -108 170 -208 288
-249 118 -42 271 -44 364 -5 41 17 40 31 -1 15 -15 -5 -58 -10 -95 -10 -327 0
-512 333 -356 640 51 100 200 230 264 230 17 0 31 -2 31 -4 0 -2 -9 -25 -20
-51 -11 -26 -20 -49 -20 -51 0 -2 22 -4 48 -4 114 0 216 -51 252 -124 25 -53
25 -59 0 -51 -49 16 -161 6 -213 -18 -116 -53 -162 -123 -155 -237 4 -84 38
-138 113 -185 44 -27 56 -30 134 -30 90 0 129 13 179 59 27 24 64 91 56 99 -3
3 -24 -3 -47 -14 -98 -44 -207 -4 -207 77 0 65 72 113 152 100 95 -15 168 -75
295 -243 48 -63 90 -110 94 -106 4 4 37 172 73 373 37 201 68 374 71 385 4 17
11 20 43 17 l38 -4 17 55 c9 29 17 61 17 69 0 13 -69 15 -568 17 l-568 2 -71
-55z m147 24 c-13 -8 -13 -10 2 -10 9 0 19 3 22 8 6 9 224 7 249 -3 9 -4 17
-3 17 1 0 5 39 8 87 7 49 -1 217 -3 374 -5 223 -2 285 -6 282 -15 -3 -7 -10
-10 -16 -6 -7 4 -8 0 -4 -12 9 -23 -9 -45 -37 -45 -43 0 -55 -21 -72 -125 -20
-125 -21 -129 -35 -190 -6 -27 -12 -59 -13 -70 0 -11 -4 -25 -8 -31 -4 -6 -10
-37 -13 -69 -2 -31 -9 -74 -14 -94 -5 -20 -12 -54 -16 -75 -9 -66 -17 -86 -31
-86 -8 0 -14 7 -14 16 0 9 -5 12 -12 8 -7 -4 -4 3 7 17 19 22 19 23 1 9 -18
-14 -19 -13 -13 2 4 13 2 16 -11 11 -9 -3 -14 -3 -10 2 4 4 -7 19 -23 32 -17
14 -28 32 -25 39 3 7 0 16 -6 20 -7 5 -8 2 -3 -6 4 -7 -11 6 -34 28 -26 25
-40 46 -35 53 5 8 3 9 -5 4 -8 -4 -24 4 -42 21 -16 15 -29 25 -29 21 0 -4 -10
-1 -22 7 -38 24 -121 37 -152 23 -14 -7 -17 -6 -11 5 6 10 5 11 -6 1 -7 -7
-17 -13 -22 -13 -4 0 -5 6 -1 13 4 6 5 10 1 7 -3 -3 -6 -9 -6 -13 0 -4 -6 -14
-13 -21 -38 -40 -50 -63 -57 -106 -5 -34 -4 -47 3 -44 6 2 20 -9 29 -26 10
-17 23 -28 28 -25 5 4 9 2 9 -3 0 -5 22 -14 50 -19 33 -7 47 -7 43 0 -4 6 0 8
10 4 10 -4 29 -2 44 4 l27 10 -19 -23 c-27 -31 -37 -38 -49 -31 -5 3 -6 1 -2
-5 4 -7 -4 -14 -21 -18 -15 -3 -43 -10 -61 -16 -37 -11 -121 4 -160 29 -32 19
-68 56 -64 66 1 4 -3 6 -9 5 -17 -4 -40 82 -34 130 2 24 12 50 21 59 8 9 13
24 11 34 -4 16 -2 17 14 8 15 -7 19 -7 17 3 -2 7 3 12 10 10 8 -1 11 2 8 7 -9
14 24 43 41 37 9 -4 11 -2 7 6 -5 8 -2 9 9 5 10 -4 17 -1 17 6 0 15 6 16 123
19 73 3 91 6 102 22 12 16 12 22 0 39 -11 16 -12 24 -2 36 10 12 9 14 -5 8
-12 -4 -15 -2 -12 7 3 8 0 17 -7 22 -8 5 -10 3 -4 -7 5 -8 -4 -3 -18 10 -15
13 -24 28 -21 32 3 5 -3 6 -13 2 -15 -6 -16 -4 -5 9 16 20 -3 37 -21 19 -9 -9
-7 -11 8 -6 15 5 17 5 6 -3 -20 -15 -55 4 -47 25 5 12 3 13 -6 5 -14 -11 -59
-9 -79 4 -7 4 -28 7 -48 6 -26 -1 -32 1 -21 8 8 5 12 10 7 10 -4 0 0 11 9 25
16 24 16 27 -2 40 -28 21 -82 18 -116 -6 -16 -12 -31 -19 -34 -16 -7 7 -115
-100 -137 -135 -10 -16 -22 -28 -28 -28 -6 0 -7 5 -3 12 4 7 3 8 -5 4 -8 -6
-9 -11 -1 -20 7 -10 3 -23 -15 -50 -13 -20 -22 -36 -19 -36 3 0 -1 -9 -9 -21
-8 -11 -13 -29 -10 -40 3 -10 1 -19 -3 -19 -10 0 -14 -30 -14 -110 0 -63 19
-160 32 -160 4 0 8 -8 8 -19 0 -10 7 -24 15 -31 9 -7 14 -19 11 -27 -3 -7 -1
-13 5 -13 6 0 8 -9 4 -20 -4 -12 -2 -20 5 -20 6 0 8 5 5 10 -3 6 -2 10 4 10 5
0 20 -15 32 -32 13 -18 27 -35 31 -36 5 -2 5 -9 2 -14 -4 -6 -2 -8 3 -5 15 9
66 -19 69 -36 2 -12 -7 -11 -45 5 -25 12 -47 25 -49 29 -2 5 -12 9 -23 9 -21
0 -29 6 -110 82 -60 56 -116 151 -126 215 -5 28 -3 34 7 28 9 -5 11 -4 6 4 -4
6 -11 9 -17 6 -11 -8 0 154 13 178 5 9 6 22 3 28 -4 5 5 25 19 44 27 35 33 51
16 40 -5 -3 -10 -2 -10 3 0 6 7 12 15 16 8 3 14 11 13 18 -2 7 2 12 9 11 7 -2
10 3 7 10 -6 17 34 59 48 51 7 -4 8 -2 4 5 -4 6 -13 9 -19 5 -7 -3 1 6 16 20
16 15 32 24 37 21 4 -3 7 3 6 13 0 10 6 17 16 17 23 0 32 11 17 21 -8 5 -10 3
-4 -7 5 -8 5 -11 1 -7 -9 7 -9 18 0 17 3 0 14 11 24 24 11 13 33 31 50 39 35
17 115 24 90 8z"/>
<path d="M1342 1917 c-12 -14 -11 -42 3 -54 4 -4 5 -3 1 4 -3 6 -2 14 3 18 5
3 9 14 8 25 -2 24 -2 24 -15 7z"/>
<path d="M1919 1882 c-37 -3 -71 -29 -75 -57 -2 -12 2 -12 18 -4 20 11 21 10
70 -31 10 -8 18 -20 18 -27 0 -7 7 -10 15 -7 9 4 15 0 15 -8 0 -8 9 -23 20
-33 11 -10 17 -21 15 -25 -3 -5 -1 -10 3 -12 5 -1 12 -16 16 -31 5 -20 3 -27
-5 -22 -8 6 -8 2 0 -13 6 -11 10 -45 9 -74 -2 -29 0 -54 4 -56 10 -4 68 -62
68 -68 0 -3 -4 -2 -10 1 -6 3 -7 -1 -3 -10 4 -13 8 -14 14 -4 5 9 11 10 21 2
28 -23 44 9 68 132 13 66 24 133 26 148 2 28 13 86 21 117 8 28 4 53 -10 67
-10 10 -50 14 -148 16 -74 1 -150 1 -170 -1z m308 -44 c-3 -13 -13 -66 -22
-118 -15 -91 -41 -230 -51 -278 -4 -22 -6 -22 -49 15 -44 38 -44 39 -38 89 11
101 -42 211 -135 277 -33 24 -45 28 -54 19 -7 -7 -17 -12 -22 -12 -6 0 -2 7 8
15 16 12 56 15 194 15 l174 0 -5 -22z"/>
<path d="M1985 1820 c3 -6 50 -10 106 -10 59 0 99 4 99 10 0 6 -42 10 -106 10
-67 0 -103 -4 -99 -10z"/>
<path d="M2091 1524 c0 -11 3 -14 6 -6 3 7 2 16 -1 19 -3 4 -6 -2 -5 -13z"/>
<path d="M1779 1763 c-13 -16 -12 -17 4 -4 16 13 21 21 13 21 -2 0 -10 -8 -17
-17z"/>
<path d="M1165 1649 c-4 -6 -5 -12 -2 -15 2 -3 7 2 10 11 7 17 1 20 -8 4z"/>
<path d="M1186 1633 c-6 -14 -5 -15 5 -6 7 7 10 15 7 18 -3 3 -9 -2 -12 -12z"/>
<path d="M2001 1533 c-1 -17 16 -25 25 -12 4 7 3 9 -4 5 -5 -3 -13 0 -15 6 -4
9 -6 10 -6 1z"/>
<path d="M1710 1241 c0 -6 4 -12 8 -15 5 -3 9 1 9 9 0 8 -4 15 -9 15 -4 0 -8
-4 -8 -9z"/>
<path d="M1175 1211 c-3 -5 -2 -12 3 -15 5 -3 9 1 9 9 0 17 -3 19 -12 6z"/>
<path d="M1335 1070 c-3 -6 1 -7 9 -4 18 7 21 14 7 14 -6 0 -13 -4 -16 -10z"/>
<path d="M4405 1883 c-9 -49 -21 -98 -26 -111 -5 -13 -9 -33 -8 -45 1 -17 3
-16 9 8 28 101 55 235 48 235 -3 0 -13 -39 -23 -87z"/>
<path d="M1203 1923 c0 -9 4 -10 14 -2 7 6 13 12 13 14 0 1 -6 2 -13 2 -8 0
-14 -6 -14 -14z"/>
<path d="M3661 1924 c0 -11 3 -14 6 -6 3 7 2 16 -1 19 -3 4 -6 -2 -5 -13z"/>
<path d="M3646 1875 c-11 -42 -24 -55 -57 -55 -16 0 -29 -5 -29 -11 0 -6 16
-9 38 -7 33 3 38 7 50 42 7 22 11 44 9 50 -2 6 -7 -3 -11 -19z"/>
<path d="M3956 1823 c-8 -38 -17 -88 -21 -113 -5 -45 -5 -44 10 10 9 30 17 66
19 80 2 14 7 40 11 58 4 17 5 32 2 32 -3 0 -12 -30 -21 -67z"/>
<path d="M2950 1852 c0 -6 -14 -27 -31 -47 -41 -46 -87 -48 -129 -6 -30 29
-35 28 -55 -9 -6 -10 -2 -9 12 3 20 18 21 18 34 -1 8 -10 24 -24 36 -30 26
-14 73 -16 73 -3 0 5 9 13 20 16 11 3 20 13 20 21 0 8 4 14 9 14 12 0 25 39
17 47 -3 4 -6 1 -6 -5z"/>
<path d="M1526 1813 c-16 -8 -58 -45 -95 -82 -82 -81 -131 -174 -136 -259 l-4
-57 9 54 c20 107 87 215 179 286 28 22 62 48 74 57 27 21 13 21 -27 1z"/>
<path d="M2490 1821 c0 -4 -11 -6 -24 -4 -25 5 -37 -17 -35 -67 1 -16 4 -10
11 18 7 31 14 43 26 41 33 -3 52 1 52 11 0 6 -7 10 -15 10 -8 0 -15 -4 -15 -9z"/>
<path d="M3265 1810 c-4 -6 7 -10 24 -10 17 0 31 5 31 10 0 6 -11 10 -24 10
-14 0 -28 -4 -31 -10z"/>
<path d="M3240 1675 c-12 -64 -20 -119 -17 -121 2 -2 14 48 26 112 12 64 20
118 18 121 -3 2 -15 -48 -27 -112z"/>
<path d="M3538 1700 c-9 -52 -30 -171 -48 -263 -17 -93 -30 -173 -28 -179 2
-5 14 46 27 114 12 67 34 182 48 255 13 73 23 140 21 150 -2 10 -11 -25 -20
-77z"/>
<path d="M4570 1766 c0 -2 8 -10 18 -17 15 -13 16 -12 3 4 -13 16 -21 21 -21
13z"/>
<path d="M5496 1747 c3 -10 9 -15 12 -12 3 3 0 11 -7 18 -10 9 -11 8 -5 -6z"/>
<path d="M4778 1743 c-20 -5 -19 -3 -53 -147 -14 -61 -42 -143 -61 -184 -36
-75 -115 -167 -136 -160 -33 11 -32 37 11 242 50 239 51 236 -40 236 -53 0
-89 -15 -89 -38 0 -4 -16 -85 -35 -179 -44 -219 -50 -268 -36 -319 26 -96 127
-116 239 -47 26 16 57 44 69 62 l23 34 0 -32 c0 -18 5 -41 11 -53 13 -24 67
-48 111 -48 l33 0 1 103 c0 76 10 149 38 287 20 102 39 192 42 201 11 38 -58
61 -128 42z m57 -24 c-16 -7 -14 -8 12 -5 30 5 31 4 28 -27 -2 -18 -7 -43 -11
-57 -3 -14 -6 -35 -6 -47 0 -13 -4 -21 -8 -18 -4 3 -10 -4 -13 -15 -3 -11 -2
-18 2 -16 4 3 -1 -34 -11 -81 -23 -116 -30 -166 -33 -242 -1 -43 -7 -66 -16
-72 -21 -11 -72 16 -86 47 -10 21 -10 24 2 14 10 -8 15 -8 21 1 5 8 3 9 -6 4
-10 -6 -12 -4 -7 8 4 11 2 14 -8 11 -7 -3 -16 3 -20 15 -6 20 -7 20 -31 -6
-13 -14 -24 -21 -24 -15 0 6 5 14 10 17 6 3 10 11 10 18 0 6 -8 0 -17 -13 -10
-14 -17 -29 -15 -34 2 -5 -4 -3 -13 4 -8 7 -18 10 -22 6 -3 -3 -2 -6 4 -6 6 0
13 -7 16 -14 4 -11 1 -13 -10 -9 -10 4 -14 2 -10 -3 11 -19 -56 -48 -110 -48
-41 0 -57 4 -73 22 -11 12 -18 22 -14 22 3 0 -1 11 -10 25 -9 13 -16 28 -16
32 0 4 5 1 10 -7 7 -10 8 0 4 32 -7 53 2 121 16 113 5 -3 12 0 16 6 5 8 3 9
-6 4 -10 -6 -12 -3 -8 13 4 12 1 22 -4 22 -6 0 -6 6 2 15 6 8 14 29 16 47 2
18 12 73 22 122 21 100 34 114 96 102 42 -8 42 -7 19 -129 -12 -67 -18 -86
-25 -72 -5 14 -6 11 -3 -11 3 -17 0 -50 -8 -72 -8 -23 -10 -39 -5 -36 6 4 5
-3 -2 -15 -12 -23 -12 -133 1 -126 4 3 12 -1 18 -9 6 -7 22 -11 36 -8 14 2 23
7 20 10 -2 3 5 10 18 17 12 6 21 17 19 24 -2 9 3 9 16 2 14 -7 19 -6 19 4 0 8
-5 11 -11 8 -6 -4 -4 1 4 11 8 10 22 35 31 55 10 20 18 28 18 19 1 -9 -3 -20
-9 -23 -5 -3 -10 -12 -10 -18 1 -29 30 30 30 61 0 23 4 31 12 26 7 -5 9 -2 5
8 -3 9 -3 19 1 22 3 4 7 12 9 19 2 7 12 46 24 87 12 41 24 93 28 115 5 31 11
41 31 46 38 11 59 9 35 -2z"/>
<path d="M4706 1313 c-6 -14 -5 -15 5 -6 7 7 10 15 7 18 -3 3 -9 -2 -12 -12z"/>
<path d="M4386 1225 c-9 -26 -7 -32 5 -12 6 10 9 21 6 23 -2 3 -7 -2 -11 -11z"/>
<path d="M1002 1713 c-23 -59 -42 -138 -41 -172 1 -26 4 -17 14 34 7 39 20 90
29 114 18 48 16 69 -2 24z"/>
<path d="M1562 1713 c6 -8 35 -13 73 -13 78 0 140 -21 184 -63 22 -20 29 -24
19 -10 -38 58 -93 83 -205 92 -65 5 -80 4 -71 -6z"/>
<path d="M2406 1629 c-24 -123 -86 -471 -86 -483 0 -39 37 141 65 314 3 19 15
81 26 138 11 56 19 108 17 113 -2 6 -12 -31 -22 -82z"/>
<path d="M4360 1681 c0 -25 6 -27 13 -6 4 8 2 17 -3 20 -6 4 -10 -3 -10 -14z"/>
<path d="M4926 1664 c-4 -14 -5 -28 -3 -31 3 -2 8 8 11 23 4 14 5 28 3 31 -3
2 -8 -8 -11 -23z"/>
<path d="M4602 1650 c0 -14 2 -19 5 -12 2 6 2 18 0 25 -3 6 -5 1 -5 -13z"/>
<path d="M2549 1633 c12 -23 29 -38 37 -31 2 3 -8 15 -22 29 -25 23 -26 23
-15 2z"/>
<path d="M4345 1610 c-4 -23 -5 -43 -2 -46 2 -3 7 14 11 37 4 23 5 44 2 46 -2
2 -7 -14 -11 -37z"/>
<path d="M4572 1513 c-26 -122 -30 -144 -37 -193 -5 -35 -5 -35 5 -5 5 16 12
44 15 62 2 18 14 74 25 124 12 51 20 99 18 106 -2 8 -13 -34 -26 -94z"/>
<path d="M4912 1590 c0 -14 2 -19 5 -12 2 6 2 18 0 25 -3 6 -5 1 -5 -13z"/>
<path d="M4331 1534 c0 -11 3 -14 6 -6 3 7 2 16 -1 19 -3 4 -6 -2 -5 -13z"/>
<path d="M4901 1534 c0 -11 3 -14 6 -6 3 7 2 16 -1 19 -3 4 -6 -2 -5 -13z"/>
<path d="M3212 1520 c0 -14 2 -19 5 -12 2 6 2 18 0 25 -3 6 -5 1 -5 -13z"/>
<path d="M5520 1507 c0 -43 -26 -129 -57 -191 -38 -75 -126 -162 -202 -199
-61 -29 -73 -32 -171 -32 -108 0 -156 14 -188 54 -11 15 -12 15 -7 0 25 -72
215 -100 340 -49 64 26 126 60 110 60 -5 0 1 6 14 13 41 20 108 125 148 227
15 39 29 150 19 150 -3 0 -6 -15 -6 -33z"/>
<path d="M4316 1459 c-4 -23 -5 -44 -2 -46 2 -2 7 14 11 37 4 23 5 43 2 46 -2
3 -7 -14 -11 -37z"/>
<path d="M4885 1460 c-4 -23 -5 -43 -2 -46 2 -3 7 14 11 37 4 23 5 44 2 46 -2
2 -7 -14 -11 -37z"/>
<path d="M3186 1394 c-10 -52 -16 -97 -14 -99 2 -3 12 38 22 91 10 52 16 97
14 99 -2 3 -12 -38 -22 -91z"/>
<path d="M3990 1466 c-47 -5 -86 -10 -87 -11 -7 -5 -44 -207 -40 -218 2 -7 12
33 21 88 10 55 21 104 25 108 4 4 42 11 85 16 69 8 97 16 85 24 -2 1 -42 -2
-89 -7z"/>
<path d="M3605 1439 c10 -15 43 -30 49 -21 3 4 -8 13 -25 19 -16 6 -27 7 -24
2z"/>
<path d="M1788 1380 c-16 -12 -28 -26 -28 -32 0 -7 11 -1 25 12 34 32 111 30
170 -4 54 -32 158 -136 184 -185 7 -11 17 -21 23 -21 12 0 -44 73 -111 143
-62 65 -119 97 -183 104 -44 4 -57 2 -80 -17z"/>
<path d="M4295 1353 c-5 -27 -9 -52 -11 -58 -11 -40 -25 -128 -21 -131 3 -3
10 21 15 53 6 32 14 69 17 83 11 53 17 100 12 100 -2 0 -8 -21 -12 -47z"/>
<path d="M4865 1350 c-4 -28 -5 -53 -2 -56 2 -3 7 19 11 47 4 28 5 53 3 56 -3
2 -8 -19 -12 -47z"/>
<path d="M2489 1296 c8 -10 29 -16 55 -16 78 0 226 -50 306 -104 25 -16 78
-56 118 -89 118 -94 163 -87 176 28 l5 50 -13 -51 c-17 -66 -22 -74 -50 -74
-24 0 -72 30 -163 100 -114 89 -203 129 -333 150 -41 6 -84 14 -95 17 -17 5
-18 4 -6 -11z"/>
<path d="M3155 1230 c-4 -28 -5 -53 -2 -56 2 -3 7 19 11 47 4 28 5 53 3 56 -3
2 -8 -19 -12 -47z"/>
<path d="M4852 1260 c0 -14 2 -19 5 -12 2 6 2 18 0 25 -3 6 -5 1 -5 -13z"/>
<path d="M2015 1232 c-6 -4 -17 -20 -25 -36 -21 -41 -103 -103 -153 -117 -94
-25 -208 2 -288 68 l-34 28 23 -32 c12 -17 31 -35 42 -38 11 -4 20 -11 20 -16
0 -5 3 -8 8 -7 4 0 14 -1 22 -5 115 -44 254 -21 329 57 24 24 76 107 67 106 0
0 -6 -4 -11 -8z"/>
<path d="M3440 1161 c-14 -86 -28 -111 -60 -111 -15 0 -61 31 -90 60 -49 49
-68 60 -74 45 -3 -9 -2 -14 3 -11 5 3 28 -12 52 -34 24 -22 63 -50 86 -62 39
-21 44 -21 59 -7 15 16 48 171 41 193 -2 6 -10 -27 -17 -73z"/>
<path d="M3840 1153 c-17 -93 -30 -107 -101 -100 -31 3 -70 12 -88 22 -18 9
-30 12 -26 5 15 -24 129 -53 172 -43 12 2 26 17 32 31 13 36 34 142 28 148 -2
3 -10 -26 -17 -63z"/>
<path d="M1110 1171 c0 -5 7 -14 15 -21 9 -7 13 -20 10 -29 -3 -8 -3 -12 1 -8
4 3 32 -17 63 -46 51 -47 168 -114 229 -132 77 -22 213 -30 270 -15 95 25 111
32 128 57 l17 27 -28 -22 c-89 -70 -329 -70 -470 1 -72 35 -163 106 -196 152
-33 46 -39 52 -39 36z"/>
<path d="M4631 1147 c-6 -8 -35 -26 -66 -42 -89 -45 -173 -34 -229 29 -18 21
-18 21 -2 -7 9 -15 14 -33 10 -39 -4 -7 -3 -8 5 -4 6 4 19 2 28 -6 9 -7 17
-12 17 -10 1 2 9 0 19 -4 29 -11 114 3 160 26 58 29 92 56 79 63 -5 4 -15 1
-21 -6z"/>
<path d="M4244 1108 c-8 -38 -13 -44 -45 -52 -43 -10 -134 14 -157 42 -11 15
-12 14 -2 -6 16 -32 68 -52 133 -52 63 0 73 9 83 68 9 55 1 54 -12 0z"/>
<path d="M817 1108 c19 -34 43 -64 43 -53 0 8 -52 85 -57 85 -2 0 4 -15 14
-32z"/>
<path d="M2187 1110 c31 -54 69 -83 96 -76 14 3 27 15 30 27 5 20 5 20 -13 4
-28 -25 -62 -12 -95 35 -33 47 -44 53 -18 10z"/>
<path d="M4672 1110 c7 -12 36 -27 65 -36 70 -20 122 -6 131 36 2 9 -5 6 -18
-7 -14 -15 -32 -23 -55 -23 -39 0 -115 27 -115 41 0 5 -5 9 -10 9 -6 0 -5 -8
2 -20z"/>
<path d="M5222 1039 c-181 -80 -455 -101 -969 -75 -596 30 -1158 20 -1586 -29
-421 -48 -800 -121 -932 -180 -49 -22 -114 -79 -103 -90 3 -3 56 6 118 20 458
103 1049 186 1548 216 187 11 654 8 1184 -7 332 -10 540 20 704 103 103 51
131 85 36 42z m-1326 -91 c6 -7 -252 -13 -539 -13 -42 0 -77 -4 -77 -8 0 -5
-26 -7 -57 -6 -32 1 -80 -1 -108 -4 -27 -3 -81 -9 -120 -12 -38 -3 -92 -8
-119 -11 -26 -3 -69 -7 -95 -9 -25 -1 -53 -5 -61 -8 -18 -7 -89 -15 -243 -30
-65 -7 -115 -15 -111 -19 7 -8 -45 -13 -94 -10 -12 0 -20 -4 -16 -9 3 -6 -4
-7 -18 -4 -13 4 -43 0 -66 -8 -23 -8 -53 -12 -68 -9 -16 3 -25 1 -21 -5 4 -6
-13 -9 -43 -9 -26 1 -46 -2 -44 -5 5 -8 -75 -29 -108 -29 -13 0 -47 -6 -75
-13 -35 -9 -50 -10 -47 -3 3 6 -1 3 -9 -6 -8 -10 -23 -17 -33 -17 -19 1 -19 1
0 6 13 4 15 7 7 12 -7 5 12 16 48 28 33 10 57 15 54 10 -3 -5 5 -2 18 6 13 9
44 19 69 23 25 3 79 15 120 26 41 10 106 21 143 23 38 2 71 6 75 10 4 4 -4 4
-18 0 -14 -4 -21 -4 -17 1 4 4 20 9 36 10 15 1 75 9 132 17 143 22 172 25 349
43 230 22 234 22 375 29 72 4 131 8 133 9 6 7 641 0 648 -6z m76 -5 c9 -10 6
-13 -19 -13 -17 0 -33 6 -36 13 -6 17 37 17 55 0z m133 2 c49 -3 92 -9 95 -12
10 -11 -193 6 -204 17 -8 8 -7 10 4 6 8 -2 55 -7 105 -11z m200 -18 c11 -2 -7
-4 -40 -3 -33 0 -52 2 -42 4 9 2 15 7 12 12 -3 5 6 5 22 0 15 -5 37 -11 48
-13z m347 -6 c9 -3 -55 -5 -143 -5 -88 1 -162 4 -165 7 -8 7 288 6 308 -2z
m72 0 c3 -4 -6 -6 -19 -3 -14 2 -25 6 -25 8 0 8 39 4 44 -5z"/>
<path d="M3418 943 c7 -3 16 -2 19 1 4 3 -2 6 -13 5 -11 0 -14 -3 -6 -6z"/>
<path d="M2488 863 c7 -3 16 -2 19 1 4 3 -2 6 -13 5 -11 0 -14 -3 -6 -6z"/>
<path d="M1878 763 c7 -3 16 -2 19 1 4 3 -2 6 -13 5 -11 0 -14 -3 -6 -6z"/>
<path d="M879 1023 c14 -27 93 -113 103 -113 5 0 20 -11 34 -23 59 -55 216
-117 334 -133 86 -11 109 -11 167 -2 86 13 95 15 126 27 16 6 33 9 38 5 5 -3
9 -2 9 3 0 4 14 16 31 26 18 10 29 20 26 23 -3 3 -16 -1 -29 -9 -41 -27 -145
-55 -225 -62 -196 -17 -410 64 -560 212 -35 35 -60 55 -54 46z"/>
<path d="M5274 1017 c-64 -54 -208 -107 -364 -134 -114 -21 -418 -22 -905 -6
-322 11 -683 4 -895 -17 -58 -5 -134 -12 -170 -15 -322 -28 -903 -122 -1228
-199 -35 -8 -70 -12 -78 -9 -8 3 -14 0 -14 -6 0 -20 31 -18 165 14 55 14 118
27 140 31 22 3 83 15 135 26 126 26 123 25 220 38 47 6 105 16 129 21 24 5 65
12 90 15 25 2 111 13 191 23 80 11 179 22 220 26 41 3 98 8 125 10 303 29 775
40 1070 25 392 -19 525 -21 654 -11 130 10 345 54 357 72 3 5 14 9 25 9 24 0
141 63 159 86 22 25 4 26 -26 1z"/>
</g>
</svg>
